<svg width="1642" height="228" viewBox="0 0 1642 228" fill="none" xmlns="http://www.w3.org/2000/svg">
<g filter="url(#filter0_dd)">
<path d="M170.302 70.48V201H202.282V19H168.222L112.842 105.06L57.462 19H23.402V201H54.862V71L111.802 156.28H112.842L170.302 70.48ZM384.065 19H249.125V201H385.365V172.4H281.105V123.52H372.365V94.92H281.105V47.6H384.065V19ZM581.644 171.88L561.104 151.08C553.304 158.36 545.418 164.167 537.444 168.5C529.471 172.66 519.938 174.74 508.844 174.74C500.178 174.74 492.118 173.093 484.664 169.8C477.384 166.333 471.058 161.653 465.684 155.76C460.311 149.867 456.151 143.02 453.204 135.22C450.258 127.247 448.784 118.753 448.784 109.74C448.784 100.727 450.258 92.32 453.204 84.52C456.151 76.72 460.311 69.96 465.684 64.24C471.058 58.3467 477.384 53.7533 484.664 50.46C492.118 46.9933 500.178 45.26 508.844 45.26C519.244 45.26 528.518 47.34 536.664 51.5C544.811 55.66 552.524 61.12 559.804 67.88L580.344 44.22C576.011 40.06 571.418 36.2467 566.564 32.78C561.711 29.3133 556.424 26.3667 550.704 23.94C544.984 21.34 538.658 19.3467 531.724 17.96C524.964 16.5733 517.424 15.88 509.104 15.88C495.238 15.88 482.584 18.3933 471.144 23.42C459.704 28.2733 449.824 35.0333 441.504 43.7C433.184 52.1933 426.684 62.16 422.004 73.6C417.498 85.04 415.244 97.26 415.244 110.26C415.244 123.433 417.584 135.74 422.264 147.18C426.944 158.62 433.358 168.587 441.504 177.08C449.824 185.4 459.618 191.987 470.884 196.84C482.151 201.693 494.458 204.12 507.804 204.12C516.298 204.12 524.011 203.34 530.944 201.78C538.051 200.393 544.551 198.313 550.444 195.54C556.338 192.593 561.798 189.213 566.824 185.4C572.024 181.413 576.964 176.907 581.644 171.88ZM734.077 124.3V201H766.057V19H734.077V94.66H647.237V19H615.257V201H647.237V124.3H734.077ZM906.916 17.7H877.276L797.196 201H829.956L848.676 157.06H934.736L953.196 201H986.996L906.916 17.7ZM923.036 128.72H860.376L891.576 55.92L923.036 128.72ZM1145.35 144.84L1047.85 19H1018.21V201H1049.67V71.52L1150.03 201H1176.81V19H1145.35V144.84ZM1225.44 19V201H1257.42V19H1225.44ZM1464.48 171.88L1443.94 151.08C1436.14 158.36 1428.25 164.167 1420.28 168.5C1412.3 172.66 1402.77 174.74 1391.68 174.74C1383.01 174.74 1374.95 173.093 1367.5 169.8C1360.22 166.333 1353.89 161.653 1348.52 155.76C1343.14 149.867 1338.98 143.02 1336.04 135.22C1333.09 127.247 1331.62 118.753 1331.62 109.74C1331.62 100.727 1333.09 92.32 1336.04 84.52C1338.98 76.72 1343.14 69.96 1348.52 64.24C1353.89 58.3467 1360.22 53.7533 1367.5 50.46C1374.95 46.9933 1383.01 45.26 1391.68 45.26C1402.08 45.26 1411.35 47.34 1419.5 51.5C1427.64 55.66 1435.36 61.12 1442.64 67.88L1463.18 44.22C1458.84 40.06 1454.25 36.2467 1449.4 32.78C1444.54 29.3133 1439.26 26.3667 1433.54 23.94C1427.82 21.34 1421.49 19.3467 1414.56 17.96C1407.8 16.5733 1400.26 15.88 1391.94 15.88C1378.07 15.88 1365.42 18.3933 1353.98 23.42C1342.54 28.2733 1332.66 35.0333 1324.34 43.7C1316.02 52.1933 1309.52 62.16 1304.84 73.6C1300.33 85.04 1298.08 97.26 1298.08 110.26C1298.08 123.433 1300.42 135.74 1305.1 147.18C1309.78 158.62 1316.19 168.587 1324.34 177.08C1332.66 185.4 1342.45 191.987 1353.72 196.84C1364.98 201.693 1377.29 204.12 1390.64 204.12C1399.13 204.12 1406.84 203.34 1413.78 201.78C1420.88 200.393 1427.38 198.313 1433.28 195.54C1439.17 192.593 1444.63 189.213 1449.66 185.4C1454.86 181.413 1459.8 176.907 1464.48 171.88ZM1525.13 66.58C1525.13 60.5133 1527.73 55.4 1532.93 51.24C1538.13 46.9067 1545.41 44.74 1554.77 44.74C1563.09 44.74 1571.32 46.3867 1579.47 49.68C1587.62 52.8 1595.85 57.3933 1604.17 63.46L1621.33 39.28C1611.97 31.8267 1601.92 26.1933 1591.17 22.38C1580.6 18.3933 1568.64 16.4 1555.29 16.4C1546.28 16.4 1537.96 17.7 1530.33 20.3C1522.7 22.7267 1516.12 26.28 1510.57 30.96C1505.2 35.64 1500.95 41.2733 1497.83 47.86C1494.71 54.2733 1493.15 61.4667 1493.15 69.44C1493.15 77.9333 1494.45 85.1267 1497.05 91.02C1499.82 96.9133 1503.72 101.94 1508.75 106.1C1513.95 110.26 1520.28 113.727 1527.73 116.5C1535.36 119.273 1544.02 121.787 1553.73 124.04C1562.22 126.12 1569.07 128.113 1574.27 130.02C1579.64 131.927 1583.8 134.007 1586.75 136.26C1589.87 138.34 1591.95 140.68 1592.99 143.28C1594.2 145.88 1594.81 148.827 1594.81 152.12C1594.81 159.227 1591.86 164.86 1585.97 169.02C1580.25 173.18 1572.45 175.26 1562.57 175.26C1551.13 175.26 1540.9 173.267 1531.89 169.28C1522.88 165.12 1513.95 159.227 1505.11 151.6L1485.87 174.48C1496.79 184.36 1508.66 191.727 1521.49 196.58C1534.32 201.26 1547.75 203.6 1561.79 203.6C1571.32 203.6 1580.08 202.387 1588.05 199.96C1596.02 197.533 1602.87 193.98 1608.59 189.3C1614.31 184.62 1618.73 178.9 1621.85 172.14C1625.14 165.38 1626.79 157.667 1626.79 149C1626.79 141.373 1625.49 134.787 1622.89 129.24C1620.46 123.52 1616.82 118.58 1611.97 114.42C1607.12 110.087 1600.96 106.447 1593.51 103.5C1586.23 100.553 1577.82 97.8667 1568.29 95.44C1559.62 93.36 1552.43 91.3667 1546.71 89.46C1541.16 87.5533 1536.74 85.4733 1533.45 83.22C1530.33 80.9667 1528.16 78.54 1526.95 75.94C1525.74 73.34 1525.13 70.22 1525.13 66.58Z" fill="white"/>
<path d="M170.302 70.48H181.302V34.2862L161.162 64.3591L170.302 70.48ZM170.302 201H159.302V212H170.302V201ZM202.282 201V212H213.282V201H202.282ZM202.282 19H213.282V7.99999H202.282V19ZM168.222 19V7.99999H162.22L158.972 13.0474L168.222 19ZM112.842 105.06L103.592 111.013L112.842 125.387L122.092 111.013L112.842 105.06ZM57.462 19L66.7122 13.0474L63.4642 7.99999H57.462V19ZM23.402 19V7.99999H12.402V19H23.402ZM23.402 201H12.402V212H23.402V201ZM54.8619 201V212H65.8619V201H54.8619ZM54.8619 71L64.0102 64.8919L43.8619 34.7155V71H54.8619ZM111.802 156.28L102.654 162.388L105.92 167.28H111.802V156.28ZM112.842 156.28V167.28H118.714L121.982 162.401L112.842 156.28ZM159.302 70.48V201H181.302V70.48H159.302ZM170.302 212H202.282V190H170.302V212ZM213.282 201V19H191.282V201H213.282ZM202.282 7.99999H168.222V30H202.282V7.99999ZM158.972 13.0474L103.592 99.1074L122.092 111.013L177.472 24.9526L158.972 13.0474ZM122.092 99.1074L66.7122 13.0474L48.2117 24.9526L103.592 111.013L122.092 99.1074ZM57.462 7.99999H23.402V30H57.462V7.99999ZM12.402 19V201H34.402V19H12.402ZM23.402 212H54.8619V190H23.402V212ZM65.8619 201V71H43.8619V201H65.8619ZM45.7137 77.1081L102.654 162.388L120.95 150.172L64.0102 64.8919L45.7137 77.1081ZM111.802 167.28H112.842V145.28H111.802V167.28ZM121.982 162.401L179.442 76.6009L161.162 64.3591L103.702 150.159L121.982 162.401ZM384.065 19H395.065V7.99999H384.065V19ZM249.125 19V7.99999H238.125V19H249.125ZM249.125 201H238.125V212H249.125V201ZM385.365 201V212H396.365V201H385.365ZM385.365 172.4H396.365V161.4H385.365V172.4ZM281.105 172.4H270.105V183.4H281.105V172.4ZM281.105 123.52V112.52H270.105V123.52H281.105ZM372.365 123.52V134.52H383.365V123.52H372.365ZM372.365 94.92H383.365V83.92H372.365V94.92ZM281.105 94.92H270.105V105.92H281.105V94.92ZM281.105 47.6V36.6H270.105V47.6H281.105ZM384.065 47.6V58.6H395.065V47.6H384.065ZM384.065 7.99999H249.125V30H384.065V7.99999ZM238.125 19V201H260.125V19H238.125ZM249.125 212H385.365V190H249.125V212ZM396.365 201V172.4H374.365V201H396.365ZM385.365 161.4H281.105V183.4H385.365V161.4ZM292.105 172.4V123.52H270.105V172.4H292.105ZM281.105 134.52H372.365V112.52H281.105V134.52ZM383.365 123.52V94.92H361.365V123.52H383.365ZM372.365 83.92H281.105V105.92H372.365V83.92ZM292.105 94.92V47.6H270.105V94.92H292.105ZM281.105 58.6H384.065V36.6H281.105V58.6ZM395.065 47.6V19H373.065V47.6H395.065ZM581.644 171.88L589.695 179.376L596.882 171.656L589.471 164.151L581.644 171.88ZM561.104 151.08L568.931 143.351L561.417 135.741L553.599 143.038L561.104 151.08ZM537.444 168.5L542.532 178.252L542.615 178.209L542.697 178.165L537.444 168.5ZM484.664 169.8L479.935 179.731L480.076 179.799L480.219 179.862L484.664 169.8ZM465.684 155.76L473.813 148.349L465.684 155.76ZM453.204 135.22L442.886 139.033L442.9 139.07L442.914 139.107L453.204 135.22ZM453.204 84.52L463.495 88.4074L453.204 84.52ZM465.684 64.24L473.702 71.7714L473.758 71.7118L473.813 71.6513L465.684 64.24ZM484.664 50.46L489.198 60.4822L489.251 60.4583L489.303 60.4339L484.664 50.46ZM536.664 51.5L541.667 41.7033L536.664 51.5ZM559.804 67.88L552.319 75.9407L560.654 83.6803L568.111 75.0912L559.804 67.88ZM580.344 44.22L588.651 51.4312L595.51 43.5304L587.962 36.2847L580.344 44.22ZM566.564 32.78L560.171 41.7311V41.7311L566.564 32.78ZM550.704 23.94L546.152 33.954L546.28 34.0118L546.408 34.0664L550.704 23.94ZM531.724 17.96L529.514 28.7356L529.54 28.7411L529.567 28.7464L531.724 17.96ZM471.144 23.42L475.44 33.5464L475.505 33.519L475.569 33.4907L471.144 23.42ZM441.504 43.7L449.362 51.3976L449.401 51.3579L449.44 51.3178L441.504 43.7ZM422.004 73.6L411.823 69.435L411.796 69.5015L411.77 69.5682L422.004 73.6ZM422.264 147.18L432.445 143.015L422.264 147.18ZM441.504 177.08L433.566 184.694L433.645 184.777L433.726 184.858L441.504 177.08ZM470.884 196.84L466.532 206.943L470.884 196.84ZM530.944 201.78L528.838 190.984L528.683 191.014L528.53 191.048L530.944 201.78ZM550.444 195.54L555.128 205.493L555.247 205.437L555.364 205.379L550.444 195.54ZM566.824 185.4L573.473 194.164L573.495 194.147L573.517 194.13L566.824 185.4ZM589.471 164.151L568.931 143.351L553.277 158.809L573.817 179.609L589.471 164.151ZM553.599 143.038C546.363 149.792 539.22 155.015 532.192 158.835L542.697 178.165C551.615 173.318 560.246 166.928 568.61 159.122L553.599 143.038ZM532.356 158.748C526.279 161.918 518.573 163.74 508.844 163.74V185.74C521.302 185.74 532.663 183.402 542.532 178.252L532.356 158.748ZM508.844 163.74C501.61 163.74 495.075 162.374 489.11 159.738L480.219 179.862C489.16 183.812 498.745 185.74 508.844 185.74V163.74ZM489.394 159.869C483.385 157.007 478.216 153.178 473.813 148.349L457.556 163.171C463.899 170.129 471.384 175.66 479.935 179.731L489.394 159.869ZM473.813 148.349C469.419 143.529 465.973 137.892 463.495 131.333L442.914 139.107C446.329 148.148 451.203 156.204 457.556 163.171L473.813 148.349ZM463.522 131.407C461.053 124.726 459.784 117.531 459.784 109.74H437.784C437.784 119.976 439.462 129.767 442.886 139.033L463.522 131.407ZM459.784 109.74C459.784 101.947 461.054 94.8679 463.495 88.4074L442.914 80.6326C439.461 89.7721 437.784 99.5066 437.784 109.74H459.784ZM463.495 88.4074C465.963 81.874 469.379 76.3732 473.702 71.7714L457.667 56.7086C451.243 63.5468 446.339 71.5659 442.914 80.6326L463.495 88.4074ZM473.813 71.6513C478.176 66.8658 483.279 63.16 489.198 60.4822L480.13 40.4378C471.49 44.3467 463.939 49.8275 457.556 56.8287L473.813 71.6513ZM489.303 60.4339C495.225 57.6797 501.691 56.26 508.844 56.26V34.26C498.664 34.26 489.01 36.3069 480.025 40.4861L489.303 60.4339ZM508.844 56.26C517.745 56.26 525.265 58.0299 531.662 61.2966L541.667 41.7033C531.771 36.65 520.744 34.26 508.844 34.26V56.26ZM531.662 61.2966C538.831 64.9574 545.719 69.8121 552.319 75.9407L567.289 59.8193C559.329 52.4279 550.791 46.3626 541.667 41.7033L531.662 61.2966ZM568.111 75.0912L588.651 51.4312L572.038 37.0088L551.498 60.6688L568.111 75.0912ZM587.962 36.2847C583.249 31.7597 578.246 27.6064 572.958 23.8289L560.171 41.7311C564.589 44.8869 568.773 48.3603 572.726 52.1553L587.962 36.2847ZM572.958 23.8289C567.424 19.8759 561.43 16.5411 555 13.8136L546.408 34.0664C551.419 36.1922 555.998 38.7507 560.171 41.7311L572.958 23.8289ZM555.256 13.926C548.682 10.9375 541.539 8.70505 533.882 7.1736L529.567 28.7464C535.776 29.9883 541.287 31.7425 546.152 33.954L555.256 13.926ZM533.935 7.18435C526.317 5.62177 518.021 4.88 509.104 4.88V26.88C516.828 26.88 523.612 27.5249 529.514 28.7356L533.935 7.18435ZM509.104 4.88C493.882 4.88 479.7 7.64565 466.719 13.3493L475.569 33.4907C485.469 29.141 496.593 26.88 509.104 26.88V4.88ZM466.848 13.2936C454.086 18.7078 442.956 26.3046 433.569 36.0821L449.44 51.3178C456.693 43.7621 465.323 37.8388 475.44 33.5464L466.848 13.2936ZM433.646 36.0024C424.292 45.5522 417.02 56.7315 411.823 69.435L432.185 77.765C436.348 67.5885 442.077 58.8345 449.362 51.3976L433.646 36.0024ZM411.77 69.5682C406.729 82.3646 404.244 95.96 404.244 110.26H426.244C426.244 98.56 428.266 87.7154 432.239 77.6318L411.77 69.5682ZM404.244 110.26C404.244 124.767 406.828 138.498 412.083 151.345L432.445 143.015C428.341 132.982 426.244 122.1 426.244 110.26H404.244ZM412.083 151.345C417.26 164 424.414 175.153 433.566 184.694L449.443 169.466C442.302 162.02 436.628 153.24 432.445 143.015L412.083 151.345ZM433.726 184.858C443.073 194.205 454.042 201.562 466.532 206.943L475.236 186.737C465.193 182.411 456.576 176.595 449.282 169.302L433.726 184.858ZM466.532 206.943C479.291 212.438 493.094 215.12 507.804 215.12V193.12C495.821 193.12 485.011 190.948 475.236 186.737L466.532 206.943ZM507.804 215.12C516.958 215.12 525.497 214.281 533.359 212.512L528.53 191.048C522.525 192.399 515.638 193.12 507.804 193.12V215.12ZM533.051 212.576C540.95 211.035 548.328 208.693 555.128 205.493L545.76 185.587C540.774 187.934 535.152 189.752 528.838 190.984L533.051 212.576ZM555.364 205.379C561.839 202.141 567.881 198.406 573.473 194.164L560.176 176.636C555.715 180.021 550.837 183.045 545.525 185.701L555.364 205.379ZM573.517 194.13C579.226 189.753 584.618 184.829 589.695 179.376L573.594 164.384C569.311 168.984 564.823 173.074 560.132 176.67L573.517 194.13ZM734.077 124.3H745.077V113.3H734.077V124.3ZM734.077 201H723.077V212H734.077V201ZM766.057 201V212H777.057V201H766.057ZM766.057 19H777.057V7.99999H766.057V19ZM734.077 19V7.99999H723.077V19H734.077ZM734.077 94.66V105.66H745.077V94.66H734.077ZM647.237 94.66H636.237V105.66H647.237V94.66ZM647.237 19H658.237V7.99999H647.237V19ZM615.257 19V7.99999H604.257V19H615.257ZM615.257 201H604.257V212H615.257V201ZM647.237 201V212H658.237V201H647.237ZM647.237 124.3V113.3H636.237V124.3H647.237ZM723.077 124.3V201H745.077V124.3H723.077ZM734.077 212H766.057V190H734.077V212ZM777.057 201V19H755.057V201H777.057ZM766.057 7.99999H734.077V30H766.057V7.99999ZM723.077 19V94.66H745.077V19H723.077ZM734.077 83.66H647.237V105.66H734.077V83.66ZM658.237 94.66V19H636.237V94.66H658.237ZM647.237 7.99999H615.257V30H647.237V7.99999ZM604.257 19V201H626.257V19H604.257ZM615.257 212H647.237V190H615.257V212ZM658.237 201V124.3H636.237V201H658.237ZM647.237 135.3H734.077V113.3H647.237V135.3ZM906.917 17.7L916.996 13.2962L914.115 6.69999H906.917V17.7ZM877.276 17.7V6.69999H870.078L867.196 13.2962L877.276 17.7ZM797.197 201L787.116 196.596L780.387 212H797.197V201ZM829.957 201V212H837.227L840.076 205.311L829.957 201ZM848.677 157.06V146.06H841.406L838.557 152.749L848.677 157.06ZM934.736 157.06L944.878 152.799L942.047 146.06H934.736V157.06ZM953.197 201L943.055 205.261L945.886 212H953.197V201ZM986.996 201V212H1003.81L997.077 196.596L986.996 201ZM923.036 128.72V139.72H939.773L933.134 124.356L923.036 128.72ZM860.376 128.72L850.266 124.387L843.695 139.72H860.376V128.72ZM891.577 55.92L901.674 51.5564L891.535 28.0933L881.466 51.5869L891.577 55.92ZM906.917 6.69999H877.276V28.7H906.917V6.69999ZM867.196 13.2962L787.116 196.596L807.276 205.404L887.357 22.1037L867.196 13.2962ZM797.197 212H829.957V190H797.197V212ZM840.076 205.311L858.796 161.371L838.557 152.749L819.837 196.689L840.076 205.311ZM848.677 168.06H934.736V146.06H848.677V168.06ZM924.595 161.321L943.055 205.261L963.338 196.739L944.878 152.799L924.595 161.321ZM953.197 212H986.996V190H953.197V212ZM997.077 196.596L916.996 13.2962L896.836 22.1037L976.917 205.404L997.077 196.596ZM923.036 117.72H860.376V139.72H923.036V117.72ZM870.487 133.053L901.687 60.2531L881.466 51.5869L850.266 124.387L870.487 133.053ZM881.479 60.2836L912.939 133.084L933.134 124.356L901.674 51.5564L881.479 60.2836ZM1145.35 144.84L1136.65 151.577L1156.35 176.997V144.84H1145.35ZM1047.85 19L1056.54 12.2628L1053.24 7.99999H1047.85V19ZM1018.21 19V7.99999H1007.21V19H1018.21ZM1018.21 201H1007.21V212H1018.21V201ZM1049.67 201V212H1060.67V201H1049.67ZM1049.67 71.52L1058.36 64.7812L1038.67 39.3727V71.52H1049.67ZM1150.03 201L1141.33 207.739L1144.64 212H1150.03V201ZM1176.81 201V212H1187.81V201H1176.81ZM1176.81 19H1187.81V7.99999H1176.81V19ZM1145.35 19V7.99999H1134.35V19H1145.35ZM1154.04 138.103L1056.54 12.2628L1039.15 25.7372L1136.65 151.577L1154.04 138.103ZM1047.85 7.99999H1018.21V30H1047.85V7.99999ZM1007.21 19V201H1029.21V19H1007.21ZM1018.21 212H1049.67V190H1018.21V212ZM1060.67 201V71.52H1038.67V201H1060.67ZM1040.97 78.2588L1141.33 207.739L1158.72 194.261L1058.36 64.7812L1040.97 78.2588ZM1150.03 212H1176.81V190H1150.03V212ZM1187.81 201V19H1165.81V201H1187.81ZM1176.81 7.99999H1145.35V30H1176.81V7.99999ZM1134.35 19V144.84H1156.35V19H1134.35ZM1225.44 19V7.99999H1214.44V19H1225.44ZM1225.44 201H1214.44V212H1225.44V201ZM1257.42 201V212H1268.42V201H1257.42ZM1257.42 19H1268.42V7.99999H1257.42V19ZM1214.44 19V201H1236.44V19H1214.44ZM1225.44 212H1257.42V190H1225.44V212ZM1268.42 201V19H1246.42V201H1268.42ZM1257.42 7.99999H1225.44V30H1257.42V7.99999ZM1464.48 171.88L1472.53 179.376L1479.71 171.656L1472.3 164.151L1464.48 171.88ZM1443.94 151.08L1451.76 143.351L1444.25 135.741L1436.43 143.038L1443.94 151.08ZM1420.28 168.5L1425.36 178.252L1425.45 178.209L1425.53 178.165L1420.28 168.5ZM1367.5 169.8L1362.77 179.731L1362.91 179.799L1363.05 179.862L1367.5 169.8ZM1348.52 155.76L1356.64 148.349L1348.52 155.76ZM1336.04 135.22L1325.72 139.033L1325.73 139.07L1325.75 139.107L1336.04 135.22ZM1336.04 84.52L1346.33 88.4074L1336.04 84.52ZM1348.52 64.24L1356.53 71.7714L1356.59 71.7118L1356.64 71.6513L1348.52 64.24ZM1367.5 50.46L1372.03 60.4822L1372.08 60.4583L1372.14 60.4339L1367.5 50.46ZM1419.5 51.5L1424.5 41.7033L1419.5 51.5ZM1442.64 67.88L1435.15 75.9407L1443.49 83.6803L1450.94 75.0912L1442.64 67.88ZM1463.18 44.22L1471.48 51.4312L1478.34 43.5304L1470.79 36.2847L1463.18 44.22ZM1449.4 32.78L1443 41.7311V41.7311L1449.4 32.78ZM1433.54 23.94L1428.98 33.954L1429.11 34.0118L1429.24 34.0664L1433.54 23.94ZM1414.56 17.96L1412.35 28.7356L1412.37 28.7411L1412.4 28.7464L1414.56 17.96ZM1353.98 23.42L1358.27 33.5464L1358.34 33.519L1358.4 33.4907L1353.98 23.42ZM1324.34 43.7L1332.19 51.3976L1332.23 51.3579L1332.27 51.3178L1324.34 43.7ZM1304.84 73.6L1294.66 69.435L1294.63 69.5015L1294.6 69.5682L1304.84 73.6ZM1305.1 147.18L1315.28 143.015L1305.1 147.18ZM1324.34 177.08L1316.4 184.694L1316.48 184.777L1316.56 184.858L1324.34 177.08ZM1353.72 196.84L1349.36 206.943L1353.72 196.84ZM1413.78 201.78L1411.67 190.984L1411.52 191.014L1411.36 191.048L1413.78 201.78ZM1433.28 195.54L1437.96 205.493L1438.08 205.437L1438.2 205.379L1433.28 195.54ZM1449.66 185.4L1456.3 194.164L1456.33 194.147L1456.35 194.13L1449.66 185.4ZM1472.3 164.151L1451.76 143.351L1436.11 158.809L1456.65 179.609L1472.3 164.151ZM1436.43 143.038C1429.19 149.792 1422.05 155.015 1415.02 158.835L1425.53 178.165C1434.45 173.318 1443.08 166.928 1451.44 159.122L1436.43 143.038ZM1415.19 158.748C1409.11 161.918 1401.41 163.74 1391.68 163.74V185.74C1404.13 185.74 1415.5 183.402 1425.36 178.252L1415.19 158.748ZM1391.68 163.74C1384.44 163.74 1377.91 162.374 1371.94 159.738L1363.05 179.862C1371.99 183.812 1381.58 185.74 1391.68 185.74V163.74ZM1372.23 159.869C1366.22 157.007 1361.05 153.178 1356.64 148.349L1340.39 163.171C1346.73 170.129 1354.22 175.66 1362.77 179.731L1372.23 159.869ZM1356.64 148.349C1352.25 143.529 1348.8 137.892 1346.33 131.333L1325.75 139.107C1329.16 148.148 1334.04 156.204 1340.39 163.171L1356.64 148.349ZM1346.35 131.407C1343.89 124.726 1342.62 117.531 1342.62 109.74H1320.62C1320.62 119.976 1322.29 129.767 1325.72 139.033L1346.35 131.407ZM1342.62 109.74C1342.62 101.947 1343.89 94.8679 1346.33 88.4074L1325.75 80.6326C1322.29 89.7721 1320.62 99.5066 1320.62 109.74H1342.62ZM1346.33 88.4074C1348.79 81.874 1352.21 76.3732 1356.53 71.7714L1340.5 56.7086C1334.08 63.5468 1329.17 71.5659 1325.75 80.6326L1346.33 88.4074ZM1356.64 71.6513C1361.01 66.8658 1366.11 63.16 1372.03 60.4822L1362.96 40.4378C1354.32 44.3467 1346.77 49.8275 1340.39 56.8287L1356.64 71.6513ZM1372.14 60.4339C1378.06 57.6797 1384.52 56.26 1391.68 56.26V34.26C1381.5 34.26 1371.84 36.3069 1362.86 40.4861L1372.14 60.4339ZM1391.68 56.26C1400.58 56.26 1408.1 58.0299 1414.49 61.2966L1424.5 41.7033C1414.6 36.65 1403.58 34.26 1391.68 34.26V56.26ZM1414.49 61.2966C1421.66 64.9574 1428.55 69.8121 1435.15 75.9407L1450.12 59.8193C1442.16 52.4279 1433.62 46.3626 1424.5 41.7033L1414.49 61.2966ZM1450.94 75.0912L1471.48 51.4312L1454.87 37.0088L1434.33 60.6688L1450.94 75.0912ZM1470.79 36.2847C1466.08 31.7597 1461.08 27.6064 1455.79 23.8289L1443 41.7311C1447.42 44.8869 1451.61 48.3603 1455.56 52.1553L1470.79 36.2847ZM1455.79 23.8289C1450.26 19.8759 1444.26 16.5411 1437.83 13.8136L1429.24 34.0664C1434.25 36.1922 1438.83 38.7507 1443 41.7311L1455.79 23.8289ZM1438.09 13.926C1431.51 10.9375 1424.37 8.70505 1416.71 7.1736L1412.4 28.7464C1418.61 29.9883 1424.12 31.7425 1428.98 33.954L1438.09 13.926ZM1416.77 7.18435C1409.15 5.62177 1400.85 4.88 1391.94 4.88V26.88C1399.66 26.88 1406.44 27.5249 1412.35 28.7356L1416.77 7.18435ZM1391.94 4.88C1376.71 4.88 1362.53 7.64565 1349.55 13.3493L1358.4 33.4907C1368.3 29.141 1379.43 26.88 1391.94 26.88V4.88ZM1349.68 13.2936C1336.92 18.7078 1325.79 26.3046 1316.4 36.0821L1332.27 51.3178C1339.53 43.7621 1348.15 37.8388 1358.27 33.5464L1349.68 13.2936ZM1316.48 36.0024C1307.12 45.5522 1299.85 56.7315 1294.66 69.435L1315.02 77.765C1319.18 67.5885 1324.91 58.8345 1332.19 51.3976L1316.48 36.0024ZM1294.6 69.5682C1289.56 82.3646 1287.08 95.96 1287.08 110.26H1309.08C1309.08 98.56 1311.1 87.7154 1315.07 77.6318L1294.6 69.5682ZM1287.08 110.26C1287.08 124.767 1289.66 138.498 1294.92 151.345L1315.28 143.015C1311.17 132.982 1309.08 122.1 1309.08 110.26H1287.08ZM1294.92 151.345C1300.09 164 1307.25 175.153 1316.4 184.694L1332.27 169.466C1325.13 162.02 1319.46 153.24 1315.28 143.015L1294.92 151.345ZM1316.56 184.858C1325.9 194.205 1336.87 201.562 1349.36 206.943L1358.07 186.737C1348.03 182.411 1339.41 176.595 1332.11 169.302L1316.56 184.858ZM1349.36 206.943C1362.12 212.438 1375.93 215.12 1390.64 215.12V193.12C1378.65 193.12 1367.84 190.948 1358.07 186.737L1349.36 206.943ZM1390.64 215.12C1399.79 215.12 1408.33 214.281 1416.19 212.512L1411.36 191.048C1405.36 192.399 1398.47 193.12 1390.64 193.12V215.12ZM1415.88 212.576C1423.78 211.035 1431.16 208.693 1437.96 205.493L1428.59 185.587C1423.61 187.934 1417.98 189.752 1411.67 190.984L1415.88 212.576ZM1438.2 205.379C1444.67 202.141 1450.71 198.406 1456.3 194.164L1443.01 176.636C1438.55 180.021 1433.67 183.045 1428.36 185.701L1438.2 205.379ZM1456.35 194.13C1462.06 189.753 1467.45 184.829 1472.53 179.376L1456.43 164.384C1452.14 168.984 1447.65 173.074 1442.96 176.67L1456.35 194.13ZM1532.93 51.24L1539.8 59.8296L1539.89 59.7608L1539.97 59.6904L1532.93 51.24ZM1579.47 49.68L1575.35 59.8782L1575.44 59.9162L1575.54 59.9524L1579.47 49.68ZM1604.17 63.46L1597.69 72.3481L1606.69 78.9127L1613.14 69.8262L1604.17 63.46ZM1621.33 39.28L1630.3 45.6462L1636.32 37.1584L1628.18 30.6749L1621.33 39.28ZM1591.17 22.38L1587.29 32.6727L1587.39 32.7107L1587.49 32.7467L1591.17 22.38ZM1530.33 20.3L1533.66 30.7822L1533.77 30.748L1533.88 30.7116L1530.33 20.3ZM1510.57 30.96L1503.48 22.5528L1503.41 22.6084L1503.34 22.6651L1510.57 30.96ZM1497.83 47.86L1507.72 52.6721L1507.75 52.6207L1507.77 52.5689L1497.83 47.86ZM1497.05 91.02L1486.99 95.46L1487.04 95.5826L1487.1 95.7038L1497.05 91.02ZM1508.75 106.1L1501.74 114.574L1501.81 114.633L1501.88 114.69L1508.75 106.1ZM1527.73 116.5L1523.89 126.809L1523.93 126.824L1523.97 126.838L1527.73 116.5ZM1553.73 124.04L1556.35 113.356L1556.28 113.34L1556.22 113.325L1553.73 124.04ZM1574.27 130.02L1570.48 140.348L1570.54 140.367L1570.59 140.387L1574.27 130.02ZM1586.75 136.26L1580.07 144.998L1580.35 145.215L1580.65 145.413L1586.75 136.26ZM1592.99 143.28L1582.78 147.365L1582.89 147.652L1583.02 147.932L1592.99 143.28ZM1585.97 169.02L1579.63 160.033L1579.56 160.078L1579.5 160.124L1585.97 169.02ZM1531.89 169.28L1527.28 179.268L1527.36 179.304L1527.44 179.34L1531.89 169.28ZM1505.11 151.6L1512.29 143.271L1503.86 135.994L1496.69 144.52L1505.11 151.6ZM1485.87 174.48L1477.45 167.4L1470.62 175.52L1478.49 182.637L1485.87 174.48ZM1521.49 196.58L1517.6 206.868L1517.66 206.891L1517.72 206.914L1521.49 196.58ZM1608.59 189.3L1615.56 197.814V197.814L1608.59 189.3ZM1621.85 172.14L1611.96 167.322L1611.91 167.426L1611.86 167.53L1621.85 172.14ZM1622.89 129.24L1612.76 133.536L1612.84 133.724L1612.93 133.909L1622.89 129.24ZM1611.97 114.42L1604.64 122.625L1604.73 122.699L1604.81 122.772L1611.97 114.42ZM1593.51 103.5L1589.38 113.696L1589.42 113.713L1589.47 113.73L1593.51 103.5ZM1568.29 95.44L1571 84.7799L1570.93 84.7613L1570.86 84.7437L1568.29 95.44ZM1546.71 89.46L1543.13 99.8625L1543.18 99.8793L1543.23 99.8955L1546.71 89.46ZM1533.45 83.22L1527.01 92.1375L1527.12 92.2194L1527.24 92.2984L1533.45 83.22ZM1526.95 75.94L1536.92 71.2883V71.2882L1526.95 75.94ZM1536.13 66.58C1536.13 64.2106 1536.92 62.1348 1539.8 59.8296L1526.06 42.6504C1518.54 48.6652 1514.13 56.8161 1514.13 66.58H1536.13ZM1539.97 59.6904C1542.55 57.5378 1547 55.74 1554.77 55.74V33.74C1543.81 33.74 1533.7 36.2755 1525.89 42.7896L1539.97 59.6904ZM1554.77 55.74C1561.6 55.74 1568.44 57.0843 1575.35 59.8782L1583.59 39.4818C1574.21 35.689 1564.58 33.74 1554.77 33.74V55.74ZM1575.54 59.9524C1582.63 62.6696 1590.02 66.7534 1597.69 72.3481L1610.65 54.5719C1601.68 48.0333 1592.6 42.9304 1583.4 39.4076L1575.54 59.9524ZM1613.14 69.8262L1630.3 45.6462L1612.36 32.9138L1595.2 57.0938L1613.14 69.8262ZM1628.18 30.6749C1617.92 22.5004 1606.8 16.2538 1594.85 12.0133L1587.49 32.7467C1597.03 36.1329 1606.02 41.1529 1614.48 47.8851L1628.18 30.6749ZM1595.05 12.0873C1583.03 7.55666 1569.73 5.39999 1555.29 5.39999V27.4C1567.55 27.4 1578.16 29.23 1587.29 32.6727L1595.05 12.0873ZM1555.29 5.39999C1545.21 5.39999 1535.68 6.85551 1526.78 9.88837L1533.88 30.7116C1540.24 28.5445 1547.34 27.4 1555.29 27.4V5.39999ZM1526.99 9.8178C1518.13 12.6374 1510.24 16.8495 1503.48 22.5528L1517.66 39.3672C1522 35.7105 1527.27 32.8159 1533.66 30.7822L1526.99 9.8178ZM1503.34 22.6651C1496.8 28.3636 1491.64 35.2268 1487.89 43.151L1507.77 52.5689C1510.26 47.3199 1513.59 42.9164 1517.79 39.2549L1503.34 22.6651ZM1487.94 43.0479C1484.01 51.1293 1482.15 59.9978 1482.15 69.44H1504.15C1504.15 62.9355 1505.41 57.4174 1507.72 52.6721L1487.94 43.0479ZM1482.15 69.44C1482.15 78.9986 1483.6 87.7981 1486.99 95.46L1507.11 86.58C1505.29 82.4552 1504.15 76.8681 1504.15 69.44H1482.15ZM1487.1 95.7038C1490.56 103.064 1495.47 109.384 1501.74 114.574L1515.76 97.6257C1511.98 94.4956 1509.09 90.7625 1507 86.3362L1487.1 95.7038ZM1501.88 114.69C1508.15 119.707 1515.55 123.705 1523.89 126.809L1531.57 106.191C1525 103.748 1519.75 100.813 1515.62 97.5104L1501.88 114.69ZM1523.97 126.838C1532.09 129.792 1541.2 132.423 1551.24 134.755L1556.22 113.325C1546.85 111.15 1538.62 108.755 1531.49 106.162L1523.97 126.838ZM1551.11 134.724C1559.41 136.756 1565.82 138.638 1570.48 140.348L1578.06 119.692C1572.32 117.589 1565.04 115.484 1556.35 113.356L1551.11 134.724ZM1570.59 140.387C1575.4 142.093 1578.38 143.709 1580.07 144.998L1593.43 127.522C1589.22 124.304 1583.89 121.761 1577.95 119.653L1570.59 140.387ZM1580.65 145.413C1581.57 146.03 1582.12 146.538 1582.43 146.883C1582.58 147.052 1582.67 147.176 1582.71 147.253C1582.76 147.327 1582.78 147.364 1582.78 147.365L1603.2 139.195C1601.1 133.934 1597.21 130.011 1592.85 127.107L1580.65 145.413ZM1583.02 147.932C1583.46 148.874 1583.81 150.197 1583.81 152.12H1605.81C1605.81 147.457 1604.94 142.886 1602.96 138.628L1583.02 147.932ZM1583.81 152.12C1583.81 155.589 1582.65 157.897 1579.63 160.033L1592.31 178.007C1601.07 171.823 1605.81 162.865 1605.81 152.12H1583.81ZM1579.5 160.124C1576.27 162.469 1571.02 164.26 1562.57 164.26V186.26C1573.88 186.26 1584.22 183.891 1592.44 177.916L1579.5 160.124ZM1562.57 164.26C1552.42 164.26 1543.74 162.495 1536.34 159.22L1527.44 179.34C1538.06 184.038 1549.84 186.26 1562.57 186.26V164.26ZM1536.5 159.292C1528.56 155.63 1520.49 150.342 1512.29 143.271L1497.92 159.929C1507.41 168.111 1517.19 174.61 1527.28 179.268L1536.5 159.292ZM1496.69 144.52L1477.45 167.4L1494.29 181.56L1513.53 158.68L1496.69 144.52ZM1478.49 182.637C1490.35 193.37 1503.39 201.494 1517.6 206.868L1525.38 186.292C1513.93 181.96 1503.23 175.35 1493.25 166.323L1478.49 182.637ZM1517.72 206.914C1531.79 212.047 1546.5 214.6 1561.79 214.6V192.6C1549 192.6 1536.84 190.473 1525.26 186.246L1517.72 206.914ZM1561.79 214.6C1572.26 214.6 1582.1 213.268 1591.25 210.483L1584.85 189.437C1578.05 191.506 1570.39 192.6 1561.79 192.6V214.6ZM1591.25 210.483C1600.42 207.692 1608.59 203.512 1615.56 197.814L1601.62 180.786C1597.15 184.448 1591.62 187.375 1584.85 189.437L1591.25 210.483ZM1615.56 197.814C1622.57 192.07 1628.02 185.011 1631.84 176.75L1611.86 167.53C1609.44 172.789 1606.04 177.17 1601.62 180.786L1615.56 197.814ZM1631.74 176.958C1635.87 168.484 1637.79 159.081 1637.79 149H1615.79C1615.79 156.252 1614.42 162.276 1611.96 167.322L1631.74 176.958ZM1637.79 149C1637.79 140.145 1636.28 131.892 1632.85 124.571L1612.93 133.909C1614.7 137.682 1615.79 142.602 1615.79 149H1637.79ZM1633.02 124.944C1629.91 117.615 1625.23 111.3 1619.13 106.068L1604.81 122.772C1608.41 125.86 1611.02 129.425 1612.76 133.536L1633.02 124.944ZM1619.3 106.215C1613.28 100.845 1605.94 96.5868 1597.55 93.2704L1589.47 113.73C1595.98 116.307 1600.95 119.329 1604.64 122.625L1619.3 106.215ZM1597.64 93.3036C1589.8 90.1311 1580.9 87.3 1571 84.7799L1565.58 106.1C1574.74 108.433 1582.66 110.976 1589.38 113.696L1597.64 93.3036ZM1570.86 84.7437C1562.37 82.7063 1555.5 80.7963 1550.19 79.0245L1543.23 99.8955C1549.36 101.937 1556.88 104.014 1565.72 106.136L1570.86 84.7437ZM1550.29 79.0574C1545.28 77.3363 1541.85 75.6427 1539.66 74.1416L1527.24 92.2984C1531.63 95.304 1537.05 97.7704 1543.13 99.8625L1550.29 79.0574ZM1539.89 74.3025C1537.79 72.7866 1537.11 71.7067 1536.92 71.2883L1516.98 80.5917C1519.21 85.3733 1522.87 89.1467 1527.01 92.1375L1539.89 74.3025ZM1536.92 71.2882C1536.54 70.4812 1536.13 69.0305 1536.13 66.58H1514.13C1514.13 71.4094 1514.93 76.1988 1516.98 80.5917L1536.92 71.2882Z" fill="#24397A"/>
</g>
<defs>
<filter id="filter0_dd" x="0.401855" y="0.879883" width="1641.39" height="226.24" filterUnits="userSpaceOnUse" color-interpolation-filters="sRGB">
<feFlood flood-opacity="0" result="BackgroundImageFix"/>
<feColorMatrix in="SourceAlpha" type="matrix" values="0 0 0 0 0 0 0 0 0 0 0 0 0 0 0 0 0 0 127 0"/>
<feOffset dx="-8" dy="7"/>
<feGaussianBlur stdDeviation="1.5"/>
<feColorMatrix type="matrix" values="0 0 0 0 0.427451 0 0 0 0 0.231373 0 0 0 0 0 0 0 0 0.95 0"/>
<feBlend mode="normal" in2="BackgroundImageFix" result="effect1_dropShadow"/>
<feColorMatrix in="SourceAlpha" type="matrix" values="0 0 0 0 0 0 0 0 0 0 0 0 0 0 0 0 0 0 127 0"/>
<feOffset dx="-4" dy="4"/>
<feGaussianBlur stdDeviation="4"/>
<feColorMatrix type="matrix" values="0 0 0 0 0.427451 0 0 0 0 0.231373 0 0 0 0 0 0 0 0 0.9 0"/>
<feBlend mode="normal" in2="effect1_dropShadow" result="effect2_dropShadow"/>
<feBlend mode="normal" in="SourceGraphic" in2="effect2_dropShadow" result="shape"/>
</filter>
</defs>
</svg>
